<svg xmlns="http://www.w3.org/2000/svg" width="32" height="32" viewBox="0 0 32 32"><path d="M22.5 9.6c0.9-0.8 1.5-1.9 1.5-3.2 0-2.4-1.9-4.3-4.3-4.3-1.6 0-3 0.9-3.7 2.2-0.7-1.3-2.1-2.2-3.7-2.2-2.4 0-4.3 1.9-4.3 4.3 0 1.3 0.6 2.4 1.5 3.2h-6.3v20.3h25.6v-20.3h-6.3zM27.7 10.7v8.5h-11.2v-8.5h0.7l2.6 4.5 0.9-0.5-2.3-4h9.3zM16 8.5l0.6 1.1h-1.2l0.6-1.1zM19.7 3.2c1.8 0 3.2 1.4 3.2 3.2s-1.4 3.2-3.2 3.2c-1.8 0-3.2-1.4-3.2-3.2s1.4-3.2 3.2-3.2zM9.1 6.4c0-1.8 1.4-3.2 3.2-3.2s3.2 1.4 3.2 3.2c0 1.8-1.4 3.2-3.2 3.2s-3.2-1.4-3.2-3.2zM13.6 10.7l-2.3 4 0.9 0.5 2.6-4.5h0.7v8.5h-11.2v-8.5h9.3zM4.3 20.3h11.2v8.5h-11.2v-8.5zM16.5 28.8v-8.5h11.2v8.5h-11.2z"/></svg>